<?xml version="1.0" encoding="UTF-8" standalone="no"?>
<!-- Created by Symbolator http://kevinpt.github.io/symbolator -->
<svg xmlns="http://www.w3.org/2000/svg"
xmlns:xlink="http://www.w3.org/1999/xlink"
xml:space="preserve"
width="396" height="703" viewBox="-78 -45 396.0 703.5" version="1.1">
<style type="text/css">
<![CDATA[
.fnt1 {fill:#000000;
    font-family:Helvetica; font-size:12pt; font-weight:normal; font-style:normal;}
.fnt2 {fill:#000000;
    font-family:Helvetica; font-size:14pt; font-weight:bold; font-style:normal;}
.label {fill:#000;
  text-anchor:middle;
  font-size:16pt; font-weight:bold; font-family:Sans;}
.link {fill: #0D47A1;}
.link:hover {fill: #0D47A1; text-decoration:underline;}
.link:visited {fill: #4A148C;}
]]>
</style>
<defs>
<marker id="clock" markerWidth="8.0" markerHeight="15.0" viewBox="0 0 8.0 15.0" refX="0.5" refY="7.5" orient="auto" markerUnits="userSpaceOnUse">
<g transform="translate(0.5,7.5)"><path d="M 0 -7 L 0 7 L 7 0 z" stroke="#000000" fill="#FFFFFF" stroke-width="1"/>
</g>
</marker>
</defs>
<rect x="-78" y="-45" width="100%" height="100%" fill="white"/><g transform="translate(0,0)">
<rect x="0" y="-15.0" width="240" height="350.0" stroke="#646464" fill="#C8C8C8" stroke-width="1"/>
<g transform="translate(0,0)">
<line x1="-20" y1="0" x2="0" y2="0" stroke="#000000" fill="none" stroke-width="1"/>
<text class="fnt1" x="10" y="0" text-anchor="normal" dy="3.5">ID</text>
</g>
<g transform="translate(0,20)">
<line x1="-20" y1="0" x2="0" y2="0" stroke="#000000" fill="none" stroke-width="1"/>
<text class="fnt1" x="10" y="0" text-anchor="normal" dy="3.5">PWM_FREQUENCY_HZ</text>
</g>
<g transform="translate(0,40)">
<line x1="-20" y1="0" x2="0" y2="0" stroke="#000000" fill="none" stroke-width="1"/>
<text class="fnt1" x="10" y="0" text-anchor="normal" dy="3.5">INTERNAL_SYSMONE</text>
</g>
<g transform="translate(0,60)">
<line x1="-20" y1="0" x2="0" y2="0" stroke="#000000" fill="none" stroke-width="1"/>
<text class="fnt1" x="10" y="0" text-anchor="normal" dy="3.5">AVG_POW</text>
</g>
<g transform="translate(0,80)">
<line x1="-20" y1="0" x2="0" y2="0" stroke="#000000" fill="none" stroke-width="1"/>
<text class="fnt1" x="10" y="0" text-anchor="normal" dy="3.5">TACHO_TOL_PERCENT</text>
</g>
<g transform="translate(0,100)">
<line x1="-20" y1="0" x2="0" y2="0" stroke="#000000" fill="none" stroke-width="1"/>
<text class="fnt1" x="10" y="0" text-anchor="normal" dy="3.5">TACHO_T25</text>
</g>
<g transform="translate(0,120)">
<line x1="-20" y1="0" x2="0" y2="0" stroke="#000000" fill="none" stroke-width="1"/>
<text class="fnt1" x="10" y="0" text-anchor="normal" dy="3.5">TACHO_T50</text>
</g>
<g transform="translate(0,140)">
<line x1="-20" y1="0" x2="0" y2="0" stroke="#000000" fill="none" stroke-width="1"/>
<text class="fnt1" x="10" y="0" text-anchor="normal" dy="3.5">TACHO_T75</text>
</g>
<g transform="translate(0,160)">
<line x1="-20" y1="0" x2="0" y2="0" stroke="#000000" fill="none" stroke-width="1"/>
<text class="fnt1" x="10" y="0" text-anchor="normal" dy="3.5">TACHO_T100</text>
</g>
<g transform="translate(0,180)">
<line x1="-20" y1="0" x2="0" y2="0" stroke="#000000" fill="none" stroke-width="1"/>
<text class="fnt1" x="10" y="0" text-anchor="normal" dy="3.5">TEMP_00_H</text>
</g>
<g transform="translate(0,200)">
<line x1="-20" y1="0" x2="0" y2="0" stroke="#000000" fill="none" stroke-width="1"/>
<text class="fnt1" x="10" y="0" text-anchor="normal" dy="3.5">TEMP_25_L</text>
</g>
<g transform="translate(0,220)">
<line x1="-20" y1="0" x2="0" y2="0" stroke="#000000" fill="none" stroke-width="1"/>
<text class="fnt1" x="10" y="0" text-anchor="normal" dy="3.5">TEMP_25_H</text>
</g>
<g transform="translate(0,240)">
<line x1="-20" y1="0" x2="0" y2="0" stroke="#000000" fill="none" stroke-width="1"/>
<text class="fnt1" x="10" y="0" text-anchor="normal" dy="3.5">TEMP_50_L</text>
</g>
<g transform="translate(0,260)">
<line x1="-20" y1="0" x2="0" y2="0" stroke="#000000" fill="none" stroke-width="1"/>
<text class="fnt1" x="10" y="0" text-anchor="normal" dy="3.5">TEMP_50_H</text>
</g>
<g transform="translate(0,280)">
<line x1="-20" y1="0" x2="0" y2="0" stroke="#000000" fill="none" stroke-width="1"/>
<text class="fnt1" x="10" y="0" text-anchor="normal" dy="3.5">TEMP_75_L</text>
</g>
<g transform="translate(0,300)">
<line x1="-20" y1="0" x2="0" y2="0" stroke="#000000" fill="none" stroke-width="1"/>
<text class="fnt1" x="10" y="0" text-anchor="normal" dy="3.5">TEMP_75_H</text>
</g>
<g transform="translate(0,320)">
<line x1="-20" y1="0" x2="0" y2="0" stroke="#000000" fill="none" stroke-width="1"/>
<text class="fnt1" x="10" y="0" text-anchor="normal" dy="3.5">TEMP_00_L</text>
</g>
</g>
<rect x="1.0" y="-14.0" width="238.0" height="348.0" stroke="#646464" fill="none" stroke-width="3"/>
<text class="fnt2" x="120.0" y="-24.0" text-anchor="middle" dy="-2.0">axi_fan_control</text>
<g transform="translate(0,358.0)">
<rect x="0" y="-15.0" width="240" height="310.0" stroke="#000000" fill="#C5DBFC" stroke-width="1"/>
<g transform="translate(0,0)">
<line x1="-20" y1="0" x2="0" y2="0" stroke="#000000" fill="none" stroke-width="3"/>
<text class="fnt1" x="10" y="0" text-anchor="normal" dy="3.5">temp_in</text>
<text class="fnt1" x="-30" y="0" text-anchor="end" dy="3.5" style="fill:#969696"> <tspan fill="#039BE5">[9:0]</tspan></text>
</g>
<g transform="translate(0,20)">
<line x1="-20" y1="0" x2="0" y2="0" stroke="#000000" fill="none" stroke-width="1"/>
<text class="fnt1" x="10" y="0" text-anchor="normal" dy="3.5">tacho</text>
</g>
<g transform="translate(0,40)">
<line x1="-20" y1="0" x2="0" y2="0" stroke="#000000" fill="none" stroke-width="1" marker-end="url(#clock)"/>
<text class="fnt1" x="10" y="0" text-anchor="normal" dy="3.5">s_axi_aclk</text>
</g>
<g transform="translate(0,60)">
<line x1="-20" y1="0" x2="0" y2="0" stroke="#000000" fill="none" stroke-width="1"/>
<text class="fnt1" x="10" y="0" text-anchor="normal" dy="3.5">s_axi_aresetn</text>
</g>
<g transform="translate(0,80)">
<line x1="-20" y1="0" x2="0" y2="0" stroke="#000000" fill="none" stroke-width="1"/>
<text class="fnt1" x="10" y="0" text-anchor="normal" dy="3.5">s_axi_awvalid</text>
</g>
<g transform="translate(0,100)">
<line x1="-20" y1="0" x2="0" y2="0" stroke="#000000" fill="none" stroke-width="3"/>
<text class="fnt1" x="10" y="0" text-anchor="normal" dy="3.5">s_axi_awaddr</text>
<text class="fnt1" x="-30" y="0" text-anchor="end" dy="3.5" style="fill:#969696"> <tspan fill="#039BE5">[15:0]</tspan></text>
</g>
<g transform="translate(0,120)">
<line x1="-20" y1="0" x2="0" y2="0" stroke="#000000" fill="none" stroke-width="3"/>
<text class="fnt1" x="10" y="0" text-anchor="normal" dy="3.5">s_axi_awprot</text>
<text class="fnt1" x="-30" y="0" text-anchor="end" dy="3.5" style="fill:#969696"> <tspan fill="#039BE5">[2:0]</tspan></text>
</g>
<g transform="translate(0,140)">
<line x1="-20" y1="0" x2="0" y2="0" stroke="#000000" fill="none" stroke-width="1"/>
<text class="fnt1" x="10" y="0" text-anchor="normal" dy="3.5">s_axi_wvalid</text>
</g>
<g transform="translate(0,160)">
<line x1="-20" y1="0" x2="0" y2="0" stroke="#000000" fill="none" stroke-width="3"/>
<text class="fnt1" x="10" y="0" text-anchor="normal" dy="3.5">s_axi_wdata</text>
<text class="fnt1" x="-30" y="0" text-anchor="end" dy="3.5" style="fill:#969696"> <tspan fill="#039BE5">[31:0]</tspan></text>
</g>
<g transform="translate(0,180)">
<line x1="-20" y1="0" x2="0" y2="0" stroke="#000000" fill="none" stroke-width="3"/>
<text class="fnt1" x="10" y="0" text-anchor="normal" dy="3.5">s_axi_wstrb</text>
<text class="fnt1" x="-30" y="0" text-anchor="end" dy="3.5" style="fill:#969696"> <tspan fill="#039BE5">[3:0]</tspan></text>
</g>
<g transform="translate(0,200)">
<line x1="-20" y1="0" x2="0" y2="0" stroke="#000000" fill="none" stroke-width="1"/>
<text class="fnt1" x="10" y="0" text-anchor="normal" dy="3.5">s_axi_bready</text>
</g>
<g transform="translate(0,220)">
<line x1="-20" y1="0" x2="0" y2="0" stroke="#000000" fill="none" stroke-width="1"/>
<text class="fnt1" x="10" y="0" text-anchor="normal" dy="3.5">s_axi_arvalid</text>
</g>
<g transform="translate(0,240)">
<line x1="-20" y1="0" x2="0" y2="0" stroke="#000000" fill="none" stroke-width="3"/>
<text class="fnt1" x="10" y="0" text-anchor="normal" dy="3.5">s_axi_araddr</text>
<text class="fnt1" x="-30" y="0" text-anchor="end" dy="3.5" style="fill:#969696"> <tspan fill="#039BE5">[15:0]</tspan></text>
</g>
<g transform="translate(0,260)">
<line x1="-20" y1="0" x2="0" y2="0" stroke="#000000" fill="none" stroke-width="3"/>
<text class="fnt1" x="10" y="0" text-anchor="normal" dy="3.5">s_axi_arprot</text>
<text class="fnt1" x="-30" y="0" text-anchor="end" dy="3.5" style="fill:#969696"> <tspan fill="#039BE5">[2:0]</tspan></text>
</g>
<g transform="translate(0,280)">
<line x1="-20" y1="0" x2="0" y2="0" stroke="#000000" fill="none" stroke-width="1"/>
<text class="fnt1" x="10" y="0" text-anchor="normal" dy="3.5">s_axi_rready</text>
</g>
<g transform="translate(240,0)">
<line x1="20" y1="0" x2="0" y2="0" stroke="#000000" fill="none" stroke-width="1"/>
<text class="fnt1" x="-10" y="0" text-anchor="end" dy="3.5">irq</text>
<text class="fnt1" x="30" y="0" text-anchor="normal" dy="3.5" style="fill:#969696">reg</text>
</g>
<g transform="translate(240,20)">
<line x1="20" y1="0" x2="0" y2="0" stroke="#000000" fill="none" stroke-width="1"/>
<text class="fnt1" x="-10" y="0" text-anchor="end" dy="3.5">pwm</text>
</g>
<g transform="translate(240,40)">
<line x1="20" y1="0" x2="0" y2="0" stroke="#000000" fill="none" stroke-width="1"/>
<text class="fnt1" x="-10" y="0" text-anchor="end" dy="3.5">s_axi_awready</text>
</g>
<g transform="translate(240,60)">
<line x1="20" y1="0" x2="0" y2="0" stroke="#000000" fill="none" stroke-width="1"/>
<text class="fnt1" x="-10" y="0" text-anchor="end" dy="3.5">s_axi_wready</text>
</g>
<g transform="translate(240,80)">
<line x1="20" y1="0" x2="0" y2="0" stroke="#000000" fill="none" stroke-width="1"/>
<text class="fnt1" x="-10" y="0" text-anchor="end" dy="3.5">s_axi_bvalid</text>
</g>
<g transform="translate(240,100)">
<line x1="20" y1="0" x2="0" y2="0" stroke="#000000" fill="none" stroke-width="3"/>
<text class="fnt1" x="-10" y="0" text-anchor="end" dy="3.5">s_axi_bresp</text>
<text class="fnt1" x="30" y="0" text-anchor="normal" dy="3.5" style="fill:#969696"> <tspan fill="#039BE5">[1:0]</tspan></text>
</g>
<g transform="translate(240,120)">
<line x1="20" y1="0" x2="0" y2="0" stroke="#000000" fill="none" stroke-width="1"/>
<text class="fnt1" x="-10" y="0" text-anchor="end" dy="3.5">s_axi_arready</text>
</g>
<g transform="translate(240,140)">
<line x1="20" y1="0" x2="0" y2="0" stroke="#000000" fill="none" stroke-width="1"/>
<text class="fnt1" x="-10" y="0" text-anchor="end" dy="3.5">s_axi_rvalid</text>
</g>
<g transform="translate(240,160)">
<line x1="20" y1="0" x2="0" y2="0" stroke="#000000" fill="none" stroke-width="3"/>
<text class="fnt1" x="-10" y="0" text-anchor="end" dy="3.5">s_axi_rresp</text>
<text class="fnt1" x="30" y="0" text-anchor="normal" dy="3.5" style="fill:#969696"> <tspan fill="#039BE5">[1:0]</tspan></text>
</g>
<g transform="translate(240,180)">
<line x1="20" y1="0" x2="0" y2="0" stroke="#000000" fill="none" stroke-width="3"/>
<text class="fnt1" x="-10" y="0" text-anchor="end" dy="3.5">s_axi_rdata</text>
<text class="fnt1" x="30" y="0" text-anchor="normal" dy="3.5" style="fill:#969696"> <tspan fill="#039BE5">[31:0]</tspan></text>
</g>
</g>
<rect x="1.0" y="344.0" width="238.0" height="308.0" stroke="#000000" fill="none" stroke-width="3"/>
</svg>