<?xml version="1.0" encoding="UTF-8" standalone="no"?>
<!-- Created by Symbolator http://kevinpt.github.io/symbolator -->
<svg xmlns="http://www.w3.org/2000/svg"
xmlns:xlink="http://www.w3.org/1999/xlink"
xml:space="preserve"
width="476" height="783" viewBox="-78 -45 476.0 783.5" version="1.1">
<style type="text/css">
<![CDATA[
.fnt1 {fill:#000000;
    font-family:Helvetica; font-size:12pt; font-weight:normal; font-style:normal;}
.fnt2 {fill:#000000;
    font-family:Helvetica; font-size:14pt; font-weight:bold; font-style:normal;}
.label {fill:#000;
  text-anchor:middle;
  font-size:16pt; font-weight:bold; font-family:Sans;}
.link {fill: #0D47A1;}
.link:hover {fill: #0D47A1; text-decoration:underline;}
.link:visited {fill: #4A148C;}
]]>
</style>
<defs>
<marker id="bubble" markerWidth="7.0" markerHeight="7.0" viewBox="0 0 7.0 7.0" refX="3.5" refY="3.5" orient="auto" markerUnits="userSpaceOnUse">
<g transform="translate(3.5,3.5)"><ellipse cx="0.0" cy="0.0" rx="3.0" ry="3.0" stroke="#000000" fill="#FFFFFF" stroke-width="1"/>
</g>
</marker>
<marker id="clock" markerWidth="8.0" markerHeight="15.0" viewBox="0 0 8.0 15.0" refX="0.5" refY="7.5" orient="auto" markerUnits="userSpaceOnUse">
<g transform="translate(0.5,7.5)"><path d="M 0 -7 L 0 7 L 7 0 z" stroke="#000000" fill="#FFFFFF" stroke-width="1"/>
</g>
</marker>
</defs>
<rect x="-78" y="-45" width="100%" height="100%" fill="white"/><g transform="translate(0,0)">
<rect x="0" y="-15.0" width="320" height="190.0" stroke="#646464" fill="#C8C8C8" stroke-width="1"/>
<g transform="translate(0,0)">
<line x1="-20" y1="0" x2="0" y2="0" stroke="#000000" fill="none" stroke-width="1"/>
<text class="fnt1" x="10" y="0" text-anchor="normal" dy="3.5">ID</text>
</g>
<g transform="translate(0,20)">
<line x1="-20" y1="0" x2="0" y2="0" stroke="#000000" fill="none" stroke-width="1"/>
<text class="fnt1" x="10" y="0" text-anchor="normal" dy="3.5">FPGA_TECHNOLOGY</text>
</g>
<g transform="translate(0,40)">
<line x1="-20" y1="0" x2="0" y2="0" stroke="#000000" fill="none" stroke-width="1"/>
<text class="fnt1" x="10" y="0" text-anchor="normal" dy="3.5">FPGA_FAMILY</text>
</g>
<g transform="translate(0,60)">
<line x1="-20" y1="0" x2="0" y2="0" stroke="#000000" fill="none" stroke-width="1"/>
<text class="fnt1" x="10" y="0" text-anchor="normal" dy="3.5">SPEED_GRADE</text>
</g>
<g transform="translate(0,80)">
<line x1="-20" y1="0" x2="0" y2="0" stroke="#000000" fill="none" stroke-width="1"/>
<text class="fnt1" x="10" y="0" text-anchor="normal" dy="3.5">DEV_PACKAGE</text>
</g>
<g transform="translate(0,100)">
<line x1="-20" y1="0" x2="0" y2="0" stroke="#000000" fill="none" stroke-width="1"/>
<text class="fnt1" x="10" y="0" text-anchor="normal" dy="3.5">ADC_DATAPATH_DISABLE</text>
</g>
<g transform="translate(0,120)">
<line x1="-20" y1="0" x2="0" y2="0" stroke="#000000" fill="none" stroke-width="1"/>
<text class="fnt1" x="10" y="0" text-anchor="normal" dy="3.5">IO_DELAY_GROUP</text>
</g>
<g transform="translate(0,140)">
<line x1="-20" y1="0" x2="0" y2="0" stroke="#000000" fill="none" stroke-width="1"/>
<text class="fnt1" x="10" y="0" text-anchor="normal" dy="3.5">OUTPUT_MODE</text>
</g>
<g transform="translate(0,160)">
<line x1="-20" y1="0" x2="0" y2="0" stroke="#000000" fill="none" stroke-width="3"/>
<text class="fnt1" x="10" y="0" text-anchor="normal" dy="3.5">POLARITY_MASK</text>
<text class="fnt1" x="-30" y="0" text-anchor="end" dy="3.5" style="fill:#969696"> <tspan fill="#039BE5">[27:0]</tspan></text>
</g>
</g>
<rect x="1.0" y="-14.0" width="318.0" height="188.0" stroke="#646464" fill="none" stroke-width="3"/>
<text class="fnt2" x="160.0" y="-24.0" text-anchor="middle" dy="-2.0">axi_adaq8092</text>
<g transform="translate(0,198.0)">
<rect x="0" y="-15.0" width="320" height="550.0" stroke="#000000" fill="#C5DBFC" stroke-width="1"/>
<g transform="translate(0,0)">
<line x1="-20" y1="0" x2="0" y2="0" stroke="#000000" fill="none" stroke-width="1"/>
<text class="fnt1" x="10" y="0" text-anchor="normal" dy="3.5">adc_clk_in_p</text>
</g>
<g transform="translate(0,20)">
<line x1="-20" y1="0" x2="-3.5" y2="0.0" stroke="#000000" fill="none" stroke-width="1" marker-end="url(#bubble)"/>
<text class="fnt1" x="10" y="0" text-anchor="normal" dy="3.5">adc_clk_in_n</text>
</g>
<g transform="translate(0,40)">
<line x1="-20" y1="0" x2="0" y2="0" stroke="#000000" fill="none" stroke-width="3"/>
<text class="fnt1" x="10" y="0" text-anchor="normal" dy="3.5">lvds_adc_data_in1_p</text>
<text class="fnt1" x="-30" y="0" text-anchor="end" dy="3.5" style="fill:#969696"> <tspan fill="#039BE5">[6:0]</tspan></text>
</g>
<g transform="translate(0,60)">
<line x1="-20" y1="0" x2="-3.5" y2="0.0" stroke="#000000" fill="none" stroke-width="3" marker-end="url(#bubble)"/>
<text class="fnt1" x="10" y="0" text-anchor="normal" dy="3.5">lvds_adc_data_in1_n</text>
<text class="fnt1" x="-30" y="0" text-anchor="end" dy="3.5" style="fill:#969696"> <tspan fill="#039BE5">[6:0]</tspan></text>
</g>
<g transform="translate(0,80)">
<line x1="-20" y1="0" x2="0" y2="0" stroke="#000000" fill="none" stroke-width="3"/>
<text class="fnt1" x="10" y="0" text-anchor="normal" dy="3.5">lvds_adc_data_in2_p</text>
<text class="fnt1" x="-30" y="0" text-anchor="end" dy="3.5" style="fill:#969696"> <tspan fill="#039BE5">[6:0]</tspan></text>
</g>
<g transform="translate(0,100)">
<line x1="-20" y1="0" x2="-3.5" y2="0.0" stroke="#000000" fill="none" stroke-width="3" marker-end="url(#bubble)"/>
<text class="fnt1" x="10" y="0" text-anchor="normal" dy="3.5">lvds_adc_data_in2_n</text>
<text class="fnt1" x="-30" y="0" text-anchor="end" dy="3.5" style="fill:#969696"> <tspan fill="#039BE5">[6:0]</tspan></text>
</g>
<g transform="translate(0,120)">
<line x1="-20" y1="0" x2="0" y2="0" stroke="#000000" fill="none" stroke-width="1"/>
<text class="fnt1" x="10" y="0" text-anchor="normal" dy="3.5">lvds_adc_or_in_p</text>
</g>
<g transform="translate(0,140)">
<line x1="-20" y1="0" x2="-3.5" y2="0.0" stroke="#000000" fill="none" stroke-width="1" marker-end="url(#bubble)"/>
<text class="fnt1" x="10" y="0" text-anchor="normal" dy="3.5">lvds_adc_or_in_n</text>
</g>
<g transform="translate(0,160)">
<line x1="-20" y1="0" x2="0" y2="0" stroke="#000000" fill="none" stroke-width="3"/>
<text class="fnt1" x="10" y="0" text-anchor="normal" dy="3.5">cmos_adc_data_in1</text>
<text class="fnt1" x="-30" y="0" text-anchor="end" dy="3.5" style="fill:#969696"> <tspan fill="#039BE5">[13:0]</tspan></text>
</g>
<g transform="translate(0,180)">
<line x1="-20" y1="0" x2="0" y2="0" stroke="#000000" fill="none" stroke-width="3"/>
<text class="fnt1" x="10" y="0" text-anchor="normal" dy="3.5">cmos_adc_data_in2</text>
<text class="fnt1" x="-30" y="0" text-anchor="end" dy="3.5" style="fill:#969696"> <tspan fill="#039BE5">[13:0]</tspan></text>
</g>
<g transform="translate(0,200)">
<line x1="-20" y1="0" x2="0" y2="0" stroke="#000000" fill="none" stroke-width="1"/>
<text class="fnt1" x="10" y="0" text-anchor="normal" dy="3.5">cmos_adc_or_in_1</text>
</g>
<g transform="translate(0,220)">
<line x1="-20" y1="0" x2="0" y2="0" stroke="#000000" fill="none" stroke-width="1"/>
<text class="fnt1" x="10" y="0" text-anchor="normal" dy="3.5">cmos_adc_or_in_2</text>
</g>
<g transform="translate(0,240)">
<line x1="-20" y1="0" x2="0" y2="0" stroke="#000000" fill="none" stroke-width="1" marker-end="url(#clock)"/>
<text class="fnt1" x="10" y="0" text-anchor="normal" dy="3.5">delay_clk</text>
</g>
<g transform="translate(0,260)">
<line x1="-20" y1="0" x2="0" y2="0" stroke="#000000" fill="none" stroke-width="1"/>
<text class="fnt1" x="10" y="0" text-anchor="normal" dy="3.5">adc_dovf</text>
</g>
<g transform="translate(0,280)">
<line x1="-20" y1="0" x2="0" y2="0" stroke="#000000" fill="none" stroke-width="1" marker-end="url(#clock)"/>
<text class="fnt1" x="10" y="0" text-anchor="normal" dy="3.5">s_axi_aclk</text>
</g>
<g transform="translate(0,300)">
<line x1="-20" y1="0" x2="0" y2="0" stroke="#000000" fill="none" stroke-width="1"/>
<text class="fnt1" x="10" y="0" text-anchor="normal" dy="3.5">s_axi_aresetn</text>
</g>
<g transform="translate(0,320)">
<line x1="-20" y1="0" x2="0" y2="0" stroke="#000000" fill="none" stroke-width="1"/>
<text class="fnt1" x="10" y="0" text-anchor="normal" dy="3.5">s_axi_awvalid</text>
</g>
<g transform="translate(0,340)">
<line x1="-20" y1="0" x2="0" y2="0" stroke="#000000" fill="none" stroke-width="3"/>
<text class="fnt1" x="10" y="0" text-anchor="normal" dy="3.5">s_axi_awaddr</text>
<text class="fnt1" x="-30" y="0" text-anchor="end" dy="3.5" style="fill:#969696"> <tspan fill="#039BE5">[15:0]</tspan></text>
</g>
<g transform="translate(0,360)">
<line x1="-20" y1="0" x2="0" y2="0" stroke="#000000" fill="none" stroke-width="1"/>
<text class="fnt1" x="10" y="0" text-anchor="normal" dy="3.5">s_axi_wvalid</text>
</g>
<g transform="translate(0,380)">
<line x1="-20" y1="0" x2="0" y2="0" stroke="#000000" fill="none" stroke-width="3"/>
<text class="fnt1" x="10" y="0" text-anchor="normal" dy="3.5">s_axi_wdata</text>
<text class="fnt1" x="-30" y="0" text-anchor="end" dy="3.5" style="fill:#969696"> <tspan fill="#039BE5">[31:0]</tspan></text>
</g>
<g transform="translate(0,400)">
<line x1="-20" y1="0" x2="0" y2="0" stroke="#000000" fill="none" stroke-width="3"/>
<text class="fnt1" x="10" y="0" text-anchor="normal" dy="3.5">s_axi_wstrb</text>
<text class="fnt1" x="-30" y="0" text-anchor="end" dy="3.5" style="fill:#969696"> <tspan fill="#039BE5">[3:0]</tspan></text>
</g>
<g transform="translate(0,420)">
<line x1="-20" y1="0" x2="0" y2="0" stroke="#000000" fill="none" stroke-width="1"/>
<text class="fnt1" x="10" y="0" text-anchor="normal" dy="3.5">s_axi_bready</text>
</g>
<g transform="translate(0,440)">
<line x1="-20" y1="0" x2="0" y2="0" stroke="#000000" fill="none" stroke-width="1"/>
<text class="fnt1" x="10" y="0" text-anchor="normal" dy="3.5">s_axi_arvalid</text>
</g>
<g transform="translate(0,460)">
<line x1="-20" y1="0" x2="0" y2="0" stroke="#000000" fill="none" stroke-width="3"/>
<text class="fnt1" x="10" y="0" text-anchor="normal" dy="3.5">s_axi_araddr</text>
<text class="fnt1" x="-30" y="0" text-anchor="end" dy="3.5" style="fill:#969696"> <tspan fill="#039BE5">[15:0]</tspan></text>
</g>
<g transform="translate(0,480)">
<line x1="-20" y1="0" x2="0" y2="0" stroke="#000000" fill="none" stroke-width="1"/>
<text class="fnt1" x="10" y="0" text-anchor="normal" dy="3.5">s_axi_rready</text>
</g>
<g transform="translate(0,500)">
<line x1="-20" y1="0" x2="0" y2="0" stroke="#000000" fill="none" stroke-width="3"/>
<text class="fnt1" x="10" y="0" text-anchor="normal" dy="3.5">s_axi_awprot</text>
<text class="fnt1" x="-30" y="0" text-anchor="end" dy="3.5" style="fill:#969696"> <tspan fill="#039BE5">[2:0]</tspan></text>
</g>
<g transform="translate(0,520)">
<line x1="-20" y1="0" x2="0" y2="0" stroke="#000000" fill="none" stroke-width="3"/>
<text class="fnt1" x="10" y="0" text-anchor="normal" dy="3.5">s_axi_arprot</text>
<text class="fnt1" x="-30" y="0" text-anchor="end" dy="3.5" style="fill:#969696"> <tspan fill="#039BE5">[2:0]</tspan></text>
</g>
<g transform="translate(320,0)">
<line x1="20" y1="0" x2="0" y2="0" stroke="#000000" fill="none" stroke-width="1"/>
<text class="fnt1" x="-10" y="0" text-anchor="end" dy="3.5">adc_clk</text>
</g>
<g transform="translate(320,20)">
<line x1="20" y1="0" x2="0" y2="0" stroke="#000000" fill="none" stroke-width="1"/>
<text class="fnt1" x="-10" y="0" text-anchor="end" dy="3.5">adc_rst</text>
</g>
<g transform="translate(320,40)">
<line x1="20" y1="0" x2="0" y2="0" stroke="#000000" fill="none" stroke-width="1"/>
<text class="fnt1" x="-10" y="0" text-anchor="end" dy="3.5">adc_valid</text>
</g>
<g transform="translate(320,60)">
<line x1="20" y1="0" x2="0" y2="0" stroke="#000000" fill="none" stroke-width="1"/>
<text class="fnt1" x="-10" y="0" text-anchor="end" dy="3.5">adc_enable_1</text>
</g>
<g transform="translate(320,80)">
<line x1="20" y1="0" x2="0" y2="0" stroke="#000000" fill="none" stroke-width="1"/>
<text class="fnt1" x="-10" y="0" text-anchor="end" dy="3.5">adc_enable_2</text>
</g>
<g transform="translate(320,100)">
<line x1="20" y1="0" x2="0" y2="0" stroke="#000000" fill="none" stroke-width="3"/>
<text class="fnt1" x="-10" y="0" text-anchor="end" dy="3.5">adc_data_channel1</text>
<text class="fnt1" x="30" y="0" text-anchor="normal" dy="3.5" style="fill:#969696"> <tspan fill="#039BE5">[15:0]</tspan></text>
</g>
<g transform="translate(320,120)">
<line x1="20" y1="0" x2="0" y2="0" stroke="#000000" fill="none" stroke-width="3"/>
<text class="fnt1" x="-10" y="0" text-anchor="end" dy="3.5">adc_data_channel2</text>
<text class="fnt1" x="30" y="0" text-anchor="normal" dy="3.5" style="fill:#969696"> <tspan fill="#039BE5">[15:0]</tspan></text>
</g>
<g transform="translate(320,140)">
<line x1="20" y1="0" x2="0" y2="0" stroke="#000000" fill="none" stroke-width="1"/>
<text class="fnt1" x="-10" y="0" text-anchor="end" dy="3.5">s_axi_awready</text>
</g>
<g transform="translate(320,160)">
<line x1="20" y1="0" x2="0" y2="0" stroke="#000000" fill="none" stroke-width="1"/>
<text class="fnt1" x="-10" y="0" text-anchor="end" dy="3.5">s_axi_wready</text>
</g>
<g transform="translate(320,180)">
<line x1="20" y1="0" x2="0" y2="0" stroke="#000000" fill="none" stroke-width="1"/>
<text class="fnt1" x="-10" y="0" text-anchor="end" dy="3.5">s_axi_bvalid</text>
</g>
<g transform="translate(320,200)">
<line x1="20" y1="0" x2="0" y2="0" stroke="#000000" fill="none" stroke-width="3"/>
<text class="fnt1" x="-10" y="0" text-anchor="end" dy="3.5">s_axi_bresp</text>
<text class="fnt1" x="30" y="0" text-anchor="normal" dy="3.5" style="fill:#969696"> <tspan fill="#039BE5">[1:0]</tspan></text>
</g>
<g transform="translate(320,220)">
<line x1="20" y1="0" x2="0" y2="0" stroke="#000000" fill="none" stroke-width="1"/>
<text class="fnt1" x="-10" y="0" text-anchor="end" dy="3.5">s_axi_arready</text>
</g>
<g transform="translate(320,240)">
<line x1="20" y1="0" x2="0" y2="0" stroke="#000000" fill="none" stroke-width="1"/>
<text class="fnt1" x="-10" y="0" text-anchor="end" dy="3.5">s_axi_rvalid</text>
</g>
<g transform="translate(320,260)">
<line x1="20" y1="0" x2="0" y2="0" stroke="#000000" fill="none" stroke-width="3"/>
<text class="fnt1" x="-10" y="0" text-anchor="end" dy="3.5">s_axi_rresp</text>
<text class="fnt1" x="30" y="0" text-anchor="normal" dy="3.5" style="fill:#969696"> <tspan fill="#039BE5">[1:0]</tspan></text>
</g>
<g transform="translate(320,280)">
<line x1="20" y1="0" x2="0" y2="0" stroke="#000000" fill="none" stroke-width="3"/>
<text class="fnt1" x="-10" y="0" text-anchor="end" dy="3.5">s_axi_rdata</text>
<text class="fnt1" x="30" y="0" text-anchor="normal" dy="3.5" style="fill:#969696"> <tspan fill="#039BE5">[31:0]</tspan></text>
</g>
</g>
<rect x="1.0" y="184.0" width="318.0" height="548.0" stroke="#000000" fill="none" stroke-width="3"/>
</svg>